<svg width="32" height="32" viewBox="0 0 32 32" fill="none" xmlns="http://www.w3.org/2000/svg">
<path d="M15.5 3C18.8141 3.00364 21.9914 4.32177 24.3348 6.66518C26.6782 9.0086 27.9964 12.1859 28 15.5V26C28 26.5304 27.7893 27.0391 27.4142 27.4142C27.0391 27.7893 26.5304 28 26 28H15.5C12.1848 28 9.00537 26.683 6.66117 24.3388C4.31696 21.9946 3 18.8152 3 15.5C3 12.1848 4.31696 9.00537 6.66117 6.66117C9.00537 4.31696 12.1848 3 15.5 3ZM11.5 19H20C20.2652 19 20.5196 18.8946 20.7071 18.7071C20.8946 18.5196 21 18.2652 21 18C21 17.7348 20.8946 17.4804 20.7071 17.2929C20.5196 17.1054 20.2652 17 20 17H11.5C11.2348 17 10.9804 17.1054 10.7929 17.2929C10.6054 17.4804 10.5 17.7348 10.5 18C10.5 18.2652 10.6054 18.5196 10.7929 18.7071C10.9804 18.8946 11.2348 19 11.5 19ZM11.5 15H20C20.2652 15 20.5196 14.8946 20.7071 14.7071C20.8946 14.5196 21 14.2652 21 14C21 13.7348 20.8946 13.4804 20.7071 13.2929C20.5196 13.1054 20.2652 13 20 13H11.5C11.2348 13 10.9804 13.1054 10.7929 13.2929C10.6054 13.4804 10.5 13.7348 10.5 14C10.5 14.2652 10.6054 14.5196 10.7929 14.7071C10.9804 14.8946 11.2348 15 11.5 15Z" fill="#F8F9FA"/>
</svg>
